<?xml version="1.0" encoding="utf-8"?>
<!-- Generator: Adobe Illustrator 26.2.1, SVG Export Plug-In . SVG Version: 6.00 Build 0)  -->
<svg version="1.1" id="レイヤー_1" xmlns="http://www.w3.org/2000/svg" xmlns:xlink="http://www.w3.org/1999/xlink" x="0px"
	 y="0px" viewBox="0 0 629.4 556.2" style="enable-background:new 0 0 629.4 556.2;" xml:space="preserve">
<style type="text/css">
	.st0{font-family:'SnellRoundhand-Bold';}
	.st1{font-size:42px;}
</style>
<path d="M175.4,491.8c-0.4-2.2-1.6-4-3.5-5.1c-1.9-1.1-4.2-1.4-6.2-0.8c-3.7,1.2-6.1,5.5-5.1,9.4c1,3.8,5.2,6.4,9,5.5
	c3.3-0.8,5.7-3.9,5.9-7.3C175.5,492.9,175.5,492.3,175.4,491.8L175.4,491.8z M169.1,498.7c-2.7,0.6-5.8-1.3-6.5-4
	c-0.1-0.5-0.2-1-0.1-1.6c0.1-2.3,1.7-4.6,3.9-5.3c1.4-0.4,3.1-0.2,4.5,0.6c1,0.6,2.2,1.7,2.5,3.7v0
	C173.8,494.9,171.8,498.1,169.1,498.7z M420.3,50.3c-1.4,0.7-2.5,1.9-3,3.4c-0.1,0.4-0.2,0.9-0.2,1.3c-0.1,2.5,1.5,5,3.9,5.8
	c2.8,1,6.2-0.7,7.2-3.5c1-2.8-0.5-6.2-3.3-7.3C423.4,49.5,421.8,49.5,420.3,50.3z M424.2,51.8c1.5,0.6,2.5,2.3,2.4,3.9
	c0,0.3-0.1,0.7-0.2,1c-0.7,1.8-2.9,2.9-4.8,2.3c-1.8-0.6-3-2.9-2.4-4.7c0.3-1,1-1.8,2-2.2C422.1,51.5,423.3,51.5,424.2,51.8z
	 M459.9,61c0.2,3.3,3.3,6,6.5,5.8c3.3-0.2,6-3.2,5.8-6.5c-0.2-3.3-3.2-6-6.5-5.8c-1.6,0.1-3.1,0.9-4.3,2.1c-1,1.1-1.5,2.4-1.6,3.8
	C459.9,60.5,459.9,60.7,459.9,61L459.9,61z M461.8,60.8c-0.1-1.1,0.3-2.2,1.1-3c0.8-0.9,1.8-1.4,2.9-1.5c2.2-0.1,4.4,1.8,4.5,4
	c0,0.1,0,0.3,0,0.4c-0.1,2-1.9,4-4,4.1C464.1,64.9,461.9,63,461.8,60.8C461.8,60.8,461.8,60.8,461.8,60.8z M404.4,49.1
	c1.6,0.2,3.1-0.3,4.4-1.4c1.6-1.4,2.6-3.6,2.6-5.6c0.1-3.4-2.8-6.5-6.1-6.7c-1.7-0.1-3.4,0.6-4.7,1.8c-1.2,1.2-2,2.7-2,4.2
	c0,0.1,0,0.1,0,0.2C398.5,45.5,401,48.7,404.4,49.1z M401.9,38.7c0.9-0.9,2.1-1.4,3.3-1.3c2.3,0.1,4.3,2.3,4.3,4.7c0,0,0,0.1,0,0.1
	c-0.1,1.4-0.9,3.1-2,4c-0.6,0.5-1.6,1.1-2.9,1c-2.7-0.3-4.1-3.1-4.1-5.5C400.5,40.6,401,39.5,401.9,38.7z M155.1,493.6
	c-0.2-3.6-3.5-6.5-7.1-6.3c-3.6,0.2-6.5,3.5-6.3,7c0.2,3.6,3.5,6.5,7,6.3c1.7-0.1,3.4-0.9,4.6-2.3c1.1-1.2,1.7-2.6,1.8-4.1
	C155.2,494.1,155.2,493.9,155.1,493.6L155.1,493.6z M153.1,493.7c0.1,1.2-0.4,2.4-1.2,3.3c-0.9,1-2,1.5-3.2,1.6
	c-2.4,0.1-4.7-2-4.8-4.4c0-0.1,0-0.3,0-0.4c0.1-2.2,2.1-4.3,4.3-4.4C150.6,489.3,152.9,491.4,153.1,493.7
	C153.1,493.7,153.1,493.7,153.1,493.7z M394.3,46.8c-1.2-0.7-2.6-0.8-3.8-0.3c-2.4,0.9-3.8,2.7-3.9,4.6c0,0.5,0,1.1,0.2,1.7
	c0.6,1.7,1.5,3,2.8,3.6c1,0.5,2.2,0.5,3.4,0.1c2.6-1,4.3-3.7,3.8-6.3C396.5,48.8,395.6,47.6,394.3,46.8z M392.3,54.6
	c-0.7,0.3-1.3,0.2-1.9,0c-0.8-0.4-1.4-1.2-1.8-2.4c-0.6-1.9,1-3.3,2.5-3.9c0.6-0.3,1.4-0.2,2.1,0.2c0.8,0.4,1.4,1.2,1.5,2
	c0,0.2,0.1,0.5,0,0.7C394.8,52.7,393.8,54.1,392.3,54.6z M430.2,45.5c2.1,1.2,4.5,0.6,5.2,0.4c2-0.6,3.8-2,4.8-3.8
	c0.8-1.4,1-2.9,0.5-4.3c-0.4-1.4-1.4-2.6-2.9-3.3c-1.7-0.9-3.8-1-5.5-0.3c-2.5,0.9-4.8,3.2-5,5.9c0,0.5,0,1.1,0.2,1.7
	C428,43.5,428.9,44.8,430.2,45.5z M433,36.1c1.2-0.5,2.8-0.4,4,0.2c1,0.5,1.6,1.2,1.9,2.1c0.1,0.4,0.1,0.7,0.1,1.1
	c0,0.7-0.3,1.3-0.5,1.7c-0.7,1.3-2.1,2.4-3.6,2.8c-0.4,0.1-2.2,0.6-3.7-0.3c-0.8-0.5-1.4-1.3-1.7-2.5
	C428.8,39.1,430.8,36.9,433,36.1z M368,27.5c0.8,1,1.9,1.5,3.1,1.5c1.5,0,3-0.7,4.2-1.9c1.8-2,2-5.2,0.4-7.2c-0.8-1-2.1-1.7-3.5-1.9
	c-1.4-0.1-2.7,0.3-3.6,1.1c-1.2,1.1-1.9,2.6-2,4.1C366.5,24.7,367,26.2,368,27.5C368,27.5,368,27.5,368,27.5z M369.8,20.5
	c0.5-0.5,1.3-0.7,2.2-0.6c0.9,0.1,1.7,0.5,2.2,1.1c0.5,0.6,0.7,1.5,0.7,2.3c0,0.9-0.4,1.7-1,2.4c-0.8,0.8-1.8,1.3-2.7,1.3
	c-0.7,0-1.2-0.3-1.7-0.9C368,24.5,368.2,21.9,369.8,20.5z M377.1,34.4C377.1,34.4,377.1,34.4,377.1,34.4c-0.7,1-1,2-1.1,3
	c0,0.4,0,0.7,0.1,1.1c0.2,1.2,0.9,2.1,2,2.8c1,0.7,2.3,0.9,3.6,0.6c1.4-0.3,2.6-1.1,3.4-2.3c0.7-1.2,1-2.5,0.7-3.7
	c-0.3-1.2-1.1-2.1-2.3-2.7C381.1,32,378.3,32.5,377.1,34.4z M383.3,38.6c-0.4,0.7-1.2,1.3-2.1,1.4c-0.8,0.2-1.5,0-2.1-0.3
	c-0.6-0.4-1-1-1.1-1.6c-0.2-0.8,0.1-1.7,0.7-2.6c0.6-0.9,2.3-1.4,3.7-0.6c0.7,0.4,1.2,0.9,1.3,1.5C383.9,37.1,383.8,37.8,383.3,38.6
	z M388.9,29c1.1,0.6,2.5,0.7,3.9,0.3c1.4-0.5,2.6-1.4,3.2-2.7c0.6-1.3,0.5-3.1-0.3-4.6c-0.7-1.4-1.8-2.3-3.1-2.5
	c-2.8-0.5-5.7,1.3-6.5,3.2c0,0,0,0,0,0c-0.1,0.3-0.2,0.6-0.2,0.9C385.8,25.3,386.8,27.9,388.9,29z M387.9,23.4
	c0.5-1.2,2.5-2.3,4.3-2c0.6,0.1,1.3,0.7,1.7,1.5c0.5,1,0.6,2.1,0.2,2.9c-0.4,0.8-1.1,1.4-2,1.7c-0.8,0.3-1.7,0.2-2.3-0.1
	C388.2,26.5,387.6,24.1,387.9,23.4z M415.6,40.5c1.4,0.7,3.2,0.7,4.1,0.3c2.8-1.1,4.3-4,3.7-6.9c-0.4-1.5-1.5-2.8-3-3.5
	c-1.4-0.6-2.9-0.6-4.2,0c-1.9,1-3,3.3-3.1,5.5c0,0.8,0,1.6,0.3,2.2C413.7,39.1,414.5,40,415.6,40.5z M417.1,32
	c0.7-0.4,1.6-0.4,2.5,0c1,0.4,1.7,1.3,1.9,2.2c0.1,0.4,0.1,0.8,0.1,1.1c-0.1,1.6-1.1,3-2.6,3.6c-0.4,0.2-1.6,0.2-2.6-0.3
	c-0.6-0.3-1-0.7-1.2-1.3C414.6,35.7,415.4,32.9,417.1,32z M350.4,31.4c3,2.5,7,1.5,9.4-0.8c0,0,0,0,0,0c1.3-1.3,2-3.1,2-5.1
	c-0.1-2-0.9-3.8-2.2-5c-1.3-1.2-3.2-1.8-5.2-1.6c-2,0.2-3.8,1.1-4.9,2.5c-1,1.2-1.5,2.6-1.5,4.1C347.8,27.6,348.7,29.9,350.4,31.4z
	 M351,22.5c0.8-1,2.1-1.6,3.6-1.8c1.4-0.1,2.8,0.3,3.7,1.1c1,0.9,1.6,2.2,1.6,3.6c0,0.1,0,0.3,0,0.4c-0.1,1.3-0.6,2.4-1.4,3.2
	c-1.8,1.7-4.7,2.6-6.8,0.8C349.6,28.2,349.3,24.6,351,22.5z M441.2,62.7c0.4,2,1.5,3.7,3.3,4.7c1.7,1,3.9,1.3,5.7,0.7
	c3.4-1.1,5.6-5.1,4.7-8.7c-0.9-3.5-4.8-5.9-8.3-5.1c-3,0.7-5.3,3.7-5.4,6.7C441.1,61.7,441.1,62.2,441.2,62.7L441.2,62.7z M447,56.3
	c2.5-0.6,5.4,1.2,6,3.7c0.1,0.5,0.2,1,0.1,1.4c-0.1,2.1-1.6,4.2-3.6,4.9c-1.3,0.4-2.8,0.2-4.1-0.6c-0.9-0.5-2-1.6-2.3-3.4v0
	C442.7,59.8,444.5,56.9,447,56.3z M340.4,45.1c1.1,0.6,2.5,0.7,3.9,0.3c1.4-0.5,2.6-1.4,3.2-2.7c0.6-1.3,0.5-3.1-0.3-4.6
	c-0.7-1.4-1.8-2.3-3.1-2.5c-2.8-0.5-5.7,1.3-6.5,3.2h0c-0.1,0.3-0.2,0.6-0.2,0.9C337.4,41.4,338.4,44,340.4,45.1z M339.4,39.5
	c0.5-1.2,2.5-2.3,4.3-2c0.6,0.1,1.3,0.7,1.7,1.5c0.5,1,0.6,2.1,0.2,2.9c-0.4,0.8-1.1,1.4-2,1.7c-0.8,0.3-1.7,0.2-2.3-0.1
	C339.8,42.6,339.1,40.2,339.4,39.5z M177.4,385.8c-2.1,5.3-4.3,10.9-5.7,16.6c-2,8.1-3.1,19.4,3.2,27.6c0.5,0.6,1.4,0.8,2,0.3
	c1-0.7,2-1.5,2.9-2.3c10.9-9.2,18.2-22.8,19.8-37c1.7-15.4-3.3-31.6-13.5-43.3c-0.4-0.5-1.2-0.7-1.8-0.3c-0.6,0.3-0.9,1-0.7,1.7
	c2,7.4,1.3,16.2-2.3,26.8C180.1,379.1,178.7,382.5,177.4,385.8z M196.7,390.5c-1.5,13.7-8.7,26.7-19.3,35.5
	c13.5-19.8,18.3-45.1,13-67C195.6,368.6,197.9,379.8,196.7,390.5z M176.1,426.2c0.3-9.9,3.4-20.2,6.4-30.3c0.5-1.7,1-3.5,1.5-5.2
	l0.4-1.5c2.7-9.3,5.7-19.6,5.1-29.4C194.7,381.6,189.7,406.7,176.1,426.2z M187.5,354.1c0.2,0.3,0.4,0.6,0.6,0.9
	c2.2,11-1.3,23.1-4.5,34l-0.4,1.5c-0.5,1.7-1,3.5-1.5,5.2c-2.9,9.6-5.8,19.6-6.4,29.2c-3.3-6.9-2.3-15.4-0.7-21.8
	c1.4-5.5,3.5-11,5.6-16.2c1.3-3.3,2.7-6.8,3.8-10.2C186.9,368.1,188,360.7,187.5,354.1z M186.2,473.1c2.6,0.2,5.2-0.8,6.7-2.5
	c1.2-1.4,1.8-3.3,2-5.4c0.1-1.1,0-2.2-0.3-3.3c-0.7-3.6-3.1-6.5-6.2-7.6c-4.1-1.5-9.4,0.7-11.3,4.6c-1.7,3.7-0.6,8.3,2.7,11.3
	C181.6,471.9,183.9,472.9,186.2,473.1z M179,459.8c1.4-2.9,5.5-4.6,8.7-3.5c2.9,1,4.4,3.8,4.9,6c0.6,2.7,0.1,5.3-1.2,6.9
	c-1,1.2-3,1.9-4.9,1.8c-1.8-0.1-3.6-1-5.1-2.3c-2-1.8-3-4.2-2.9-6.5C178.4,461.4,178.6,460.6,179,459.8z M208.2,498.2
	c2.8,0.8,5.2-0.3,6-2.6c0.2-0.6,0.3-1.2,0.4-1.8c0-0.8-0.1-1.6-0.4-2.3c-0.5-0.9-1.3-1.6-2.4-1.9c-2.4-0.7-5.1,0.4-6.1,2.5
	c-0.6,1.1-0.6,2.6,0,3.8C206.1,497.1,207,497.9,208.2,498.2z M207.5,493.1c0.6-1.2,2.2-1.8,3.6-1.4c0.5,0.2,0.9,0.5,1.1,0.9
	c0.3,0.6,0.3,1.5,0,2.5c0,0,0,0,0,0c-0.5,1.5-2.1,1.6-3.5,1.2c-0.5-0.1-1-0.6-1.2-1.2c-0.2-0.4-0.2-0.8-0.2-1.2
	C207.3,493.6,207.4,493.3,207.5,493.1z M595.7,202.3c-25.5-18.8-56.1-28.5-84.5-26.9c0,0-1.5-0.2-2.5-1.5
	c-4.3-5.2-26.9-41.4-45.4-58.2c13.4,6.2,27.3,8.6,38.3,9.5c21.8,1.7,43.8-1.4,65-4.5c0.7-0.1,1.2-0.6,1.2-1.3
	c0.1-0.7-0.3-1.3-0.9-1.5c-28-11.3-59.8-24.1-92.4-23.7c-13.2,0.2-27.2,2.5-32.3,4.6c-1.5-1.1-3-2.1-4.6-3.1
	c0.9-0.7,1.7-1.6,2.1-2.6c1.6-3.4,0.5-7.7-2.6-10.5c-1.7-1.5-3.8-2.4-5.9-2.6c-2.4-0.2-4.8,0.7-6.1,2.3c-1,1.2-1.6,2.8-1.8,4.7
	c-2.2-1.2-4.4-2.4-6.6-3.5c-0.9-2-2.4-3.7-4.3-4.7c-2.1-1.1-4.5-1.3-6.4-0.5c-15.1-6.7-30.9-11.7-47.2-14.8c8.4,1.1,17,2.6,25.8,4.2
	c28.7,5.2,61.2,11.2,90.3,0.7c0.1,0.4,0.3,0.7,0.4,1c1.1,1.7,3.1,2.5,4.6,2.7c2.8,0.3,5.6-1.4,6.6-3.9c0.5-1.3,0.4-2.9-0.3-4.3
	c-0.6-1.3-1.6-2.3-2.9-2.7c-3.3-1.1-6.9,0.5-8.2,3.7c-0.2,0.6-0.3,1.1-0.4,1.5c-0.1,0-0.2,0-0.3,0.1c-28.7,10.4-61,4.5-89.5-0.7
	c-3.8-0.7-7.6-1.4-11.4-2c17.5-2.9,34.5-9.5,50.7-19.7c0.5-0.3,0.6-0.9,0.3-1.3c-0.3-0.5-0.9-0.6-1.3-0.3
	c-17.7,11.2-36.5,18-55.8,20.2c-0.1,0-0.1,0-0.2,0.1c-12.3-1.9-24.1-3.2-35.5-3c14.2-14.1,31.8-24.8,50.9-30.9
	c0.5-0.2,0.8-0.7,0.6-1.2c-0.2-0.5-0.7-0.8-1.2-0.6c-19.9,6.4-38.2,17.6-52.8,32.5c-0.1,0.1-0.2,0.2-0.2,0.3c-1,0-2,0.1-2.9,0.1
	c-2.6-0.1-5.1-0.2-7.7-0.2c-119,0-215.9,96.8-215.9,215.9c0,24.7,4.1,49,12.3,72.1c0.3,0.9,1.2,1.5,2.1,1.5c0.2,0,0.5,0,0.7-0.1
	c1.1-0.4,1.7-1.7,1.3-2.8c-8-22.6-12.1-46.4-12.1-70.6c0-116.6,94.9-211.5,211.5-211.5c15,0,29.7,1.6,44,4.6
	c-0.8,0.9-1.4,2.2-1.6,3.6c0,0.2-0.1,0.5-0.1,0.7c-0.1,1.8,0.5,3.5,1.6,4.6c2.5,2.4,5.8,2.5,8.5,0.2c1.3-1.1,2.1-2.8,2.2-4.5
	c0,0,0,0,0,0c0-0.7-0.1-1.4-0.3-2.1c3.3,0.9,6.6,1.8,9.9,2.9c-0.4,0.3-0.7,0.6-0.9,1c0,0,0,0,0,0c-0.6,0.9-1.1,2.3-1.1,3.9
	c-0.1,1.8,0.3,3.7,1.2,5.3c2,3.4,6.1,3.8,9.1,2.8c2.4-0.8,3.9-2.2,4.5-4.1c0.6-1.5,0.4-3.1,0-4.4c2.4,0.9,4.8,1.9,7.2,3
	c-0.6,1-1.1,2.2-1.4,3.5c-0.1,0.6-0.2,1.2-0.2,1.7c-0.1,2.7,0.8,5.3,2.6,7.1c3,2.8,8.2,3,11.3,0.4c1.6-1.3,2.5-3.3,2.8-5.4
	c2.2,1.2,4.5,2.4,6.7,3.7c1,2.2,2.8,4,5,4.7c1.1,0.4,2.2,0.5,3.3,0.4c4.7,3,9.3,6.2,13.7,9.6c11.3,8.6,21.6,18.3,30.9,28.9
	c3.2,3.8,6.2,7.7,9.2,11.6c-0.1,0.1-0.2,0.1-0.3,0.2c-0.2,0.1-0.3,0.3-0.4,0.5c-8.8,21.1-6.2,42.9-2.5,57.5
	c4.7,18.5,13.5,35.6,22,52.2c0.3,0.6,0.9,0.9,1.6,0.8c0.6-0.1,1.1-0.6,1.2-1.3c4.6-35-1.2-71.2-16.3-102.8c3.3,4.5,6.4,9.1,9.6,13.5
	c13.3,19,27,38.5,45,53.8c0,0.1,0,0.1,0,0.2c4.6,23.8,23.4,44.3,46.7,51.1c0.6,0.2,1.2,0,1.5-0.5c0.4-0.5,0.4-1.1,0.2-1.6
	c-5.8-11.1-11.9-22.5-19.8-32.5c-5.5-7-16-18.3-26-18.2c-12.1-10.1-22.2-22.2-31.6-34.9c9.8,8.9,22,13.4,31.4,15.6
	c15.1,3.6,30.9,3.6,46.3,3.7c0.6,0,1.2-0.4,1.4-1C596.4,203.4,596.2,202.7,595.7,202.3z M477.1,65.7c0.9-2.2,3.5-3.4,5.8-2.6
	c0.8,0.3,1.4,0.9,1.8,1.7c0.3,0.6,0.4,1.2,0.4,1.8c0,0.3-0.1,0.6-0.2,0.9c-0.6,1.7-2.6,2.9-4.6,2.7c-1.1-0.1-2.5-0.7-3.1-1.8
	C476.7,67.7,476.7,66.8,477.1,65.7z M371.1,73.3c-0.1,1.2-0.6,2.4-1.5,3.2c-2,1.7-4.1,1.7-5.9-0.1c-0.8-0.8-1.2-2.2-1-3.7
	c0.2-1.5,1-2.8,2.1-3.4c2.2-1.2,3.5-1,5,0.5C370.7,70.8,371.2,72,371.1,73.3C371.1,73.3,371.1,73.3,371.1,73.3z M393.6,82.4
	c-0.5,1.3-1.6,2.3-3.4,2.9c-1.6,0.6-5.1,0.9-6.8-2c-1.3-2.3-1.2-5.7-0.2-7.1c0.7-1,2.6-2.3,4.8-2.2c1.8,0.1,3.3,1.1,4.5,3
	C393.5,78.5,394.2,80.6,393.6,82.4z M413.7,92.9c-2.3,2-6.5,1.8-8.7-0.3c-2.1-2-2.3-4.9-1.9-7c0.6-2.5,2-4.6,3.7-5.4
	c1.4-0.6,3.3-0.5,4.8,0.3c1.5,0.8,2.7,2.2,3.5,3.9c0.5,1.2,0.8,2.5,0.7,3.7C415.8,90.1,415,91.7,413.7,92.9z M430,95.5
	c-2.7-0.9-4.1-3.5-4.5-5.5c-0.5-2.5-0.1-4.9,1.1-6.4c1-1.1,2.7-1.8,4.5-1.7c1.7,0.1,3.4,0.9,4.8,2.1c1.8,1.6,2.8,3.9,2.7,6
	c0,0.8-0.2,1.5-0.5,2.2C436.7,95,432.9,96.5,430,95.5z M474.5,97.1c27.7-0.3,55,9.1,79.8,18.9c-34-8.3-68.5-13.3-107.8-15.5
	C452.4,98.9,463.3,97.2,474.5,97.1z M558.9,118.1c-39.5,4.1-77-1.5-111.5-16.6C488.1,103.8,523.7,109.1,558.9,118.1z M553.3,119.6
	c-17,2.3-34.3,4.1-51.5,2.7c-15.5-1.2-37-5.7-54.2-19.6C480.5,116.9,516,122.6,553.3,119.6z M486.1,205.3
	c-3.4-13.4-5.9-33.2,1.2-52.6c0.3,0.6,0.6,1.1,0.8,1.7c5.3,15.3,6.6,31.9,7.8,48c1.1,14.6,2.3,29.6,6.5,43.8
	C495.9,233.1,489.7,219.6,486.1,205.3z M505.7,252.6c-0.1-0.2-0.2-0.4-0.3-0.6c-5.8-15.8-7.1-33-8.4-49.7
	c-1.1-13.9-2.2-28.2-5.9-41.7C503.8,189.2,508.9,221.3,505.7,252.6z M572.5,240.6c7,8.9,12.6,19,17.8,28.9c-0.3-0.1-0.7-0.3-1-0.4
	c-15.8-12.4-29.2-28-38.9-45.5c0,0,0,0,0,0C556.6,224.5,564.5,230.5,572.5,240.6z M586.2,267.8c-17.9-7.9-31.9-24.4-36.5-43.5
	C559,240.9,571.5,255.8,586.2,267.8z M585.2,198.7c-26.8-10.7-49.4-17.3-70.5-20.7C538.2,177.5,563.3,184.9,585.2,198.7z
	 M549.2,198.5c-10.1-2.4-23.6-7.5-33.4-18.3c27.8,13.8,47.2,18,71.8,21.8C574.8,201.9,561.7,201.4,549.2,198.5z M516,179.2
	c21.6,3.6,44.9,10.7,72.7,22C563.7,197.4,544.1,193.2,516,179.2z M141.5,480.9c2.2,1.2,5.4,1.3,7.3-0.8c0.7-0.8,1.1-1.9,1.2-3.1
	c0.1-1.6-0.4-3.5-1.6-5.4c-1.6-2.7-4.4-3.9-6.8-3c-2.5,0.9-4.2,3.5-4.1,6.2C137.6,477.2,139.2,479.6,141.5,480.9z M139.6,474.2
	c0.1-1.7,1.2-3.3,2.7-3.8c1.5-0.5,3.2,0.3,4.3,2.1c1.2,2,1.9,4.6,0.6,6.1c-1.1,1.2-3.2,1.2-4.7,0.4c-1.7-0.9-2.8-2.7-2.9-4.4
	C139.6,474.5,139.6,474.4,139.6,474.2z M166.2,478.4c1.7-0.3,3.1-1.1,4-2.4c1.2-1.8,1.9-3.9,2-5.9c0.1-1,0-2.1-0.3-3.1
	c-0.8-3.3-3.6-5.8-6.7-6.3c-3-0.4-6.4,1.2-8.5,4.1c-2.3,3.1-2.5,8.1,1.6,11.3C160.6,478,163.6,478.8,166.2,478.4z M158.3,466.1
	c1.7-2.3,4.3-3.5,6.5-3.2c2.3,0.3,4.3,2.3,5,4.7c0.6,2.3,0.1,5-1.4,7.3c-0.7,1-1.7,1.4-2.6,1.5c-2,0.3-4.4-0.4-6.3-1.9v0
	C156.1,471.7,156.9,467.9,158.3,466.1z M453,116.4c-1,0.8-1.9,1.5-2.8,2.4c-10.7,9.5-17.7,23.3-18.9,37.5
	c-1.3,15.5,4.1,31.5,14.6,43c0.5,0.5,1.2,0.6,1.8,0.3c0.6-0.3,0.9-1,0.7-1.7c-2.2-7.3-1.7-16.1,1.7-26.9c1.1-3.4,2.3-6.8,3.5-10.2
	c2-5.4,4-11,5.3-16.7c1.8-8.1,2.7-19.5-3.8-27.5C454.6,116,453.7,115.9,453,116.4z M434.2,156.5c1.2-13.7,8-26.9,18.4-36
	c-13,20.2-17.2,45.6-11.4,67.3C435.9,178.4,433.3,167.3,434.2,156.5z M453.9,120.4c-0.1,9.9-2.9,20.3-5.7,30.4
	c-0.5,1.8-0.9,3.5-1.4,5.3l-0.4,1.5c-2.5,9.4-5.2,19.8-4.4,29.5C436.4,165.5,440.8,140.2,453.9,120.4z M456,143.5
	c-1.3,5.6-3.3,11-5.2,16.4c-1.2,3.4-2.5,6.8-3.6,10.3c-2.7,8.6-3.6,16.1-2.9,22.6c-0.2-0.3-0.4-0.6-0.6-0.9
	c-2.4-10.9,0.8-23.2,3.7-34.1l0.4-1.5c0.5-1.8,0.9-3.5,1.4-5.3c2.6-9.7,5.3-19.7,5.6-29.3C458.3,128.5,457.5,137.1,456,143.5z
	 M449.8,75c-1.6,0.3-2.9,1.1-3.7,2.3c-1.1,1.7-1.7,3.6-1.8,5.4c0,1,0,1.9,0.3,2.8c0.8,3,3.3,5.4,6.2,5.8c2.8,0.4,5.9-1.1,7.8-3.8
	c2.1-2.8,2.3-7.5-1.5-10.4C454.9,75.4,452.1,74.7,449.8,75z M457.1,86.4c-1.6,2.1-3.9,3.3-6,3c-2.1-0.3-4-2.1-4.6-4.4
	c-0.6-2.1-0.1-4.6,1.3-6.7c0.6-0.9,1.6-1.3,2.4-1.4c1.8-0.3,4.1,0.3,5.8,1.7l0,0C459.1,81.2,458.3,84.7,457.1,86.4z M472.5,72.7
	c-2-1.1-5-1.2-6.7,0.8c-0.7,0.8-1,1.8-1.1,2.9c-0.1,1.5,0.4,3.2,1.5,5c1.5,2.5,4,3.6,6.3,2.8c2.3-0.8,3.8-3.3,3.7-5.8
	C476.1,76,474.6,73.8,472.5,72.7z M474.3,78.8c-0.1,1.5-1.1,3-2.4,3.5c-1.4,0.5-3-0.3-4-2c-1.1-1.8-1.8-4.2-0.6-5.6
	c1-1.2,3-1.1,4.3-0.4c1.6,0.8,2.6,2.4,2.7,4.1C474.3,78.6,474.3,78.7,474.3,78.8z M410.9,56.9c-2.6-0.7-4.8,0.3-5.5,2.4
	c-0.2,0.6-0.3,1.1-0.3,1.7c0,0.8,0.1,1.5,0.4,2.1c0.4,0.9,1.2,1.5,2.2,1.8c2.2,0.7,4.7-0.4,5.6-2.3c0.5-1.1,0.5-2.4,0-3.5
	C412.8,58,411.9,57.2,410.9,56.9z M411.6,61.7c-0.5,1.1-2.1,1.7-3.3,1.3c-0.5-0.2-0.9-0.4-1.1-0.8c-0.3-0.6-0.3-1.3,0-2.3
	c0,0,0,0,0,0c0.5-1.4,2-1.5,3.2-1.2c0.5,0.1,0.9,0.5,1.1,1.1c0.2,0.4,0.2,0.7,0.2,1.1C411.7,61.2,411.7,61.5,411.6,61.7z
	 M363.8,40.1c-1.5,0.7-2.5,2.2-2.7,4c0,0.2,0,0.3,0,0.5c-0.1,1.5,0.4,2.9,1.5,3.8c2.2,1.9,5,2,7.3,0.2c1.1-0.9,1.8-2.2,1.9-3.7
	c0.1-1.5-0.5-2.9-1.6-3.9C367.8,38.6,365.4,39.4,363.8,40.1z M368.8,42.3c0.7,0.6,1,1.5,1,2.5c0,0,0,0,0,0c0,0.9-0.5,1.7-1.2,2.3
	c-1.6,1.3-3.3,1.3-4.8-0.1c-0.6-0.6-0.9-1.5-0.8-2.6c0.2-1.1,0.8-2.1,1.7-2.5C366.5,41,367.6,41.1,368.8,42.3z M354.4,48.1
	c-2.2-1.2-5-0.6-6.2,1.2c-0.7,1-1,2-1.1,3c0,0.4,0,0.7,0.1,1.1c0.2,1.2,0.9,2.1,2,2.8c1,0.7,2.3,0.9,3.6,0.6
	c1.4-0.3,2.6-1.1,3.4-2.3c0.7-1.2,1-2.5,0.7-3.7C356.3,49.7,355.5,48.8,354.4,48.1z M354.4,53.5c-0.4,0.7-1.2,1.3-2.1,1.4
	c-0.8,0.2-1.5,0-2.1-0.3c-0.6-0.4-1-1-1.1-1.6c-0.2-0.8,0.1-1.7,0.7-2.6c0.6-0.9,2.3-1.4,3.7-0.6c0.7,0.4,1.2,0.9,1.3,1.5
	c0.1,0.2,0.1,0.5,0.1,0.7C354.8,52.5,354.7,53.1,354.4,53.5z M215.2,506.7c-1.7-0.2-3.4,0.3-4.8,1.5c-1.7,1.5-2.8,3.8-2.9,6
	c-0.1,3.7,3,7.1,6.6,7.3c1.8,0.1,3.7-0.6,5.1-2c1.3-1.2,2.1-2.9,2.2-4.5c0-0.1,0-0.2,0-0.2C221.5,510.6,218.8,507.1,215.2,506.7z
	 M217.8,518c-1,1-2.3,1.5-3.5,1.4c-2.5-0.1-4.7-2.5-4.6-5.1c0-0.1,0-0.1,0-0.2c0.1-1.6,0.9-3.3,2.2-4.4c0.7-0.6,1.7-1.2,3.1-1
	c2.9,0.4,4.5,3.4,4.4,6C219.4,515.9,218.8,517.1,217.8,518z M226.2,509.2c1.3,0.7,2.8,0.9,4.1,0.4c2.6-1,4.1-2.9,4.2-5
	c0-0.6,0-1.2-0.2-1.8c-0.6-1.9-1.6-3.2-3-3.9c-1.1-0.5-2.4-0.6-3.7-0.1c-2.8,1-4.6,4-4.1,6.8C223.7,507.1,224.8,508.4,226.2,509.2z
	 M228.3,500.7c0.7-0.3,1.4-0.3,2,0c0.8,0.4,1.5,1.3,1.9,2.7c0.7,2.1-1.1,3.5-2.7,4.2c-0.7,0.3-1.5,0.2-2.3-0.3
	c-0.9-0.5-1.5-1.3-1.7-2.2c0-0.3-0.1-0.5,0-0.8C225.6,502.9,226.7,501.3,228.3,500.7z M187.2,510.5c-2.3-1.3-4.9-0.7-5.6-0.5
	c-2.1,0.6-4.1,2.2-5.2,4.1c-0.8,1.5-1,3.1-0.6,4.6c0.4,1.5,1.6,2.8,3.1,3.6c1.8,0.9,4.1,1.1,6,0.4c2.7-1,5.2-3.5,5.4-6.4
	c0-0.6,0-1.2-0.2-1.8C189.6,512.6,188.6,511.3,187.2,510.5z M184.1,520.7c-1.3,0.5-3,0.4-4.3-0.3c-1-0.5-1.8-1.3-2.1-2.3
	c-0.1-0.4-0.2-0.8-0.1-1.2c0-0.7,0.3-1.4,0.6-1.8c0.8-1.4,2.3-2.6,3.9-3.1c0.4-0.1,2.4-0.6,4,0.3c0.9,0.5,1.5,1.4,1.9,2.7
	C188.7,517.4,186.6,519.8,184.1,520.7z M231.9,528.5c-1.2-0.7-2.7-0.8-4.2-0.3c-1.5,0.5-2.8,1.6-3.4,2.9c-0.7,1.4-0.6,3.3,0.3,5
	c0.8,1.5,2,2.5,3.3,2.7c3.1,0.6,6.2-1.4,7-3.4c0,0,0,0,0,0c0.1-0.3,0.2-0.6,0.2-1C235.2,532.5,234.1,529.7,231.9,528.5z M233,534.6
	c-0.5,1.3-2.7,2.5-4.7,2.2c-0.7-0.1-1.4-0.7-1.8-1.6c-0.5-1.1-0.6-2.3-0.2-3.1c0.4-0.8,1.2-1.5,2.2-1.8c0.9-0.3,1.8-0.2,2.5,0.2
	C232.6,531.3,233.3,533.9,233,534.6z M198,505.4c1.6-0.7,2.7-2,3.2-3.7c0.1-0.5,0.2-0.9,0.3-1.4c0.2-2.7-1.6-5.5-4.2-6.3
	c-3.1-1-6.7,0.7-7.8,3.7c-1.1,3,0.6,6.7,3.6,7.9C194.6,506.2,196.4,506.2,198,505.4z M193.8,503.7c-1.6-0.6-2.7-2.5-2.6-4.2
	c0-0.4,0.1-0.7,0.2-1.1c0.7-2,3.2-3.2,5.2-2.5c2,0.7,3.2,3.1,2.6,5.1c-0.3,1.1-1.1,1.9-2.1,2.4C196,504,194.8,504.1,193.8,503.7z
	 M203.1,516c-1.6-0.7-3.5-0.7-4.5-0.4c-3,1.1-4.7,4.4-4,7.5c0.4,1.6,1.6,3.1,3.3,3.9c1.5,0.7,3.2,0.7,4.5,0c2.1-1.1,3.3-3.6,3.4-5.9
	c0-0.9,0-1.7-0.3-2.4C205.1,517.5,204.2,516.5,203.1,516z M201.4,525.1c-0.8,0.4-1.8,0.4-2.7,0c-1.1-0.5-1.9-1.4-2.1-2.4
	c-0.1-0.4-0.1-0.8-0.1-1.2c0.1-1.7,1.2-3.2,2.8-3.8c0.4-0.2,1.8-0.2,2.8,0.3c0.7,0.3,1.1,0.8,1.3,1.4
	C204.1,521.1,203.3,524.2,201.4,525.1z M244.7,522.7C244.7,522.7,244.7,522.7,244.7,522.7c0.7-1.1,1.1-2.2,1.2-3.2
	c0-0.4,0-0.8-0.1-1.1c-0.2-1.2-1-2.3-2.1-3.1c-1.1-0.7-2.5-1-3.9-0.7c-1.5,0.3-2.9,1.2-3.7,2.5c-0.8,1.3-1.1,2.7-0.7,4
	c0.3,1.3,1.2,2.3,2.5,3C240.4,525.3,243.4,524.8,244.7,522.7z M238,518.2c0.5-0.8,1.4-1.4,2.3-1.6c0.8-0.2,1.6,0,2.3,0.4
	c0.7,0.5,1.1,1.1,1.2,1.7c0.2,0.8-0.1,1.8-0.8,2.8c-0.7,1-2.5,1.5-4.1,0.7c-0.8-0.4-1.3-1-1.4-1.7C237.3,519.8,237.5,519,238,518.2z
	 M523,213.6c-1.2,0.3-1.8,1.6-1.5,2.7c5.6,19.2,8.4,39.2,8.4,59.4c0,116.6-94.9,211.5-211.5,211.5c-19.2,0-38-2.7-56-7.6
	c-0.2-1.5-0.7-2.8-1.7-3.8c-2.7-2.7-6.2-2.7-9.2-0.2c-0.2,0.1-0.3,0.3-0.5,0.5c-3.4-1.2-6.8-2.4-10.2-3.7c-0.2-1.3-0.5-2.6-1.2-3.7
	c-2.2-3.7-6.6-4.2-9.8-3.1c-0.8,0.3-1.5,0.6-2.2,1.1c-3.1-1.5-6.2-3-9.3-4.7c-0.5-1.5-1.3-2.8-2.3-3.8c-2.1-2-5.3-2.8-8.2-2.2
	c-23.8-14.6-44.7-33.8-61.2-56.7c-0.7-0.5-1.4-2.5-0.7-4.4c7.3-21.7,6.2-40.2,2.8-54.9c-4.3-18.6-12.6-36-20.7-52.7
	c-0.3-0.6-0.9-0.9-1.5-0.8c-0.6,0.1-1.1,0.6-1.2,1.2c-5.5,34.8-0.6,71.2,13.8,103.2c-3.1-4.6-6.2-9.2-9.3-13.8
	c-12.8-19.3-26.1-39.2-43.7-54.8c0-0.1,0-0.1,0-0.2c-4-23.9-22.3-44.9-45.4-52.2c-0.6-0.2-1.2,0-1.6,0.4c-0.4,0.4-0.5,1.1-0.2,1.6
	c5.6,11.2,11.3,22.8,19,33c5.3,7.1,15.6,18.7,25.6,18.9c11.8,10.4,21.7,22.8,30.8,35.6c-9.6-9.2-21.6-13.9-31-16.4
	c-15-4-30.8-4.4-46.2-4.8c-0.6,0-1.2,0.4-1.4,1c-0.2,0.6,0,1.3,0.5,1.7c25,19.4,55.6,30.1,84,29.2c0.3,0,0.7-0.1,0.9-0.3
	c0.1,0,0.1-0.1,0.2-0.2c2.1,3,4.1,6.1,6.1,9.1c3.2,4.8,6.5,9.7,9.8,14.5c4.7,7.2,9.7,14,15.1,20.5c1.4,1.7,2.8,3.4,4.2,5.1
	c4,4.7,8.3,9.1,12.7,13.4c-14.1-7.5-29.1-10.6-40.9-11.9c-21.8-2.3-43.8,0.4-65.1,3c-0.7,0.1-1.2,0.6-1.3,1.2
	c-0.1,0.7,0.3,1.3,0.9,1.6c27.7,12,59.2,25.5,91.8,25.9c13.3,0.2,27.6-1.9,32.6-3.9c0.1-0.1,0.3-0.1,0.4-0.2c0,0,0,0,0,0
	c2.5,1.9,5.1,3.7,7.7,5.4c0.1,0,0.1,0.1,0.2,0.1c1.1,0.7,2.1,1.4,3.2,2.1c1.5,1,3,1.9,4.5,2.8c-2.6,2.7-3.3,7.1-1.6,11
	c1,2.3,2.7,4.1,4.7,5.2c2.3,1.3,5,1.4,7.1,0.4c2.5-1.2,4.4-3.9,5.1-7.2c0-0.2,0-0.4,0.1-0.5c2,1.1,4.1,2.1,6.2,3.1
	c-1,3.2,0.7,6.5,1.3,7.4c2.1,3.4,4.7,4.2,6.6,4.3c3,0.1,5.8-1.6,7-3.3c0,0,0,0,0,0c0.3-0.5,0.6-1,0.8-1.7c2.9,1.1,5.8,2.2,8.7,3.2
	c0,0.1-0.1,0.2-0.1,0.4c0,0,0,0,0,0c-0.1,2,0.6,3.9,1.9,5.2c2.9,3.1,5.9,2,7.9,1v0c1.1-0.6,2-1.6,2.6-2.8c17,4.7,34.8,7.3,53,7.6
	c-24.1,4.3-49.9,0.3-78.2-5c-31-5.8-66.2-12.4-97.8-1.1c-0.1-0.4-0.3-0.8-0.5-1.1c-1.1-1.9-3.4-2.8-5-2.9c-3.1-0.3-6.1,1.5-7.1,4.2
	c-0.5,1.5-0.4,3.1,0.3,4.6c0.7,1.4,1.8,2.4,3.1,2.9c3.5,1.2,7.5-0.6,8.9-4c0.2-0.6,0.4-1.2,0.4-1.7c0.1,0,0.2,0,0.3-0.1
	c31.2-11.2,66.1-4.6,97,1.1c4.2,0.8,8.3,1.5,12.3,2.2c-19,3-37.4,10.1-55,21.1c-0.5,0.3-0.6,1-0.3,1.4c0.3,0.5,1,0.6,1.4,0.3
	c19.3-12.1,39.6-19.4,60.5-21.7c0.1,0,0.1,0,0.2-0.1c13.3,2.1,26.1,3.5,38.5,3.5c-15.5,15.2-34.6,26.7-55.3,33.3
	c-0.6,0.2-0.9,0.8-0.7,1.3c0.2,0.6,0.8,0.9,1.3,0.7c21.6-6.8,41.4-18.9,57.4-35c0.1-0.1,0.2-0.2,0.2-0.3c9.5-0.2,18.7-1.4,27.7-3.9
	c116.3-3.2,209.8-98.8,209.8-215.8c0-20.6-2.9-41-8.6-60.6C525.4,213.9,524.1,213.3,523,213.6z M60.4,303.1
	c-6.8-9-12.1-19.3-17.1-29.3c0.3,0.1,0.7,0.3,1,0.4c15.5,12.7,28.5,28.7,37.8,46.4c0,0,0,0,0,0C75.9,319.7,68.2,313.4,60.4,303.1z
	 M47.5,275.6c17.7,8.3,31.3,25.2,35.4,44.4C74,303.2,61.9,288,47.5,275.6z M82.7,345.8c10.1,2.7,23.4,8.1,32.9,19.1
	c-27.4-14.5-46.8-19.2-71.3-23.6C57.3,341.8,70.4,342.6,82.7,345.8z M115.4,365.9c-21.5-4.1-44.6-11.8-72.1-23.8
	C68.2,346.6,87.7,351.2,115.4,365.9z M46.8,344.7c26.5,11.3,49,18.5,70,22.4C93.2,367.1,68.4,359,46.8,344.7z M127.6,292.8
	c0.1,0.2,0.2,0.4,0.3,0.6c5.4,15.9,6.3,33.2,7.2,49.9c0.7,13.9,1.5,28.2,4.9,41.8C127.9,356.2,123.6,324,127.6,292.8z M142.7,391.4
	c-4.9-15.4-5.8-32.1-6.6-48.2c-0.8-14.6-1.6-29.7-5.4-43.9c6.2,13.2,12,26.9,15.3,41.3c3.1,13.5,5.1,33.3-2.5,52.6
	C143.3,392.5,143,391.9,142.7,391.4z M128.3,423.2c15.5,1.6,36.8,6.6,53.7,20.9c-32.5-15.1-67.9-21.6-105.2-19.5
	C93.8,422.7,111.1,421.4,128.3,423.2z M182.2,445.3c-40.7-3.4-76.1-9.5-111.1-19.3C110.7,422.8,148.1,429.3,182.2,445.3z M154.9,449
	c-27.7-0.3-54.8-10.4-79.3-20.8c33.7,9.1,68.1,14.9,107.4,18.1C177.1,447.7,166.2,449.1,154.9,449z M216.7,467.2
	c-0.6,2.7-2.1,4.9-4,5.8c-1.5,0.7-3.5,0.5-5.2-0.4c-1.6-0.9-2.9-2.4-3.8-4.2c-0.6-1.3-0.8-2.7-0.8-4.1c0.1-2,0.9-3.8,2.4-5
	c2.5-2.1,7-1.9,9.4,0.4C217,461.8,217.2,464.9,216.7,467.2z M238.1,477.4c-0.7,1-2.9,2.5-5.2,2.4c-1.9-0.1-3.6-1.2-4.9-3.3
	c-0.9-1.6-1.7-3.9-1-5.8c0.5-1.4,1.7-2.4,3.7-3.1c1.7-0.6,5.5-0.9,7.3,2.1C239.4,472.2,239.2,475.9,238.1,477.4z M260.4,481.3
	c-0.2,1.7-1.1,3-2.3,3.6c-2.4,1.3-3.8,1.1-5.4-0.6c-0.9-1-1.4-2.3-1.3-3.7c0,0,0,0,0,0c0.1-1.4,0.7-2.6,1.6-3.4
	c2.1-1.8,4.4-1.8,6.4,0.1C260.2,478.1,260.6,479.7,260.4,481.3z M136.5,488.4c-1,2.4-3.8,3.6-6.3,2.8c-0.8-0.3-1.5-0.9-1.9-1.8
	c-0.3-0.6-0.4-1.3-0.4-2c0-0.4,0.1-0.7,0.2-1c0.7-1.8,2.9-3.1,4.9-2.9c1.2,0.1,2.7,0.8,3.4,1.9C136.9,486.2,137,487.2,136.5,488.4z
	 M269.4,508c2.4,1.3,5.4,0.7,6.8-1.3c0.7-1.1,1.1-2.2,1.2-3.2c0-0.4,0-0.8-0.1-1.1c-0.2-1.2-1-2.3-2.1-3.1c-1.1-0.7-2.5-1-3.9-0.7
	c-1.5,0.3-2.9,1.2-3.7,2.5c-0.8,1.3-1.1,2.7-0.7,4C267.3,506.3,268.1,507.3,269.4,508z M269.4,502.1c0.5-0.8,1.4-1.4,2.3-1.6
	c0.8-0.2,1.6,0,2.3,0.4c0.7,0.5,1.1,1.1,1.2,1.7c0.2,0.8-0.1,1.8-0.8,2.8c-0.7,1-2.5,1.5-4.1,0.7c-0.8-0.4-1.3-1-1.4-1.7
	c-0.1-0.2-0.1-0.5-0.1-0.8C268.9,503.2,269.1,502.6,269.4,502.1z M284.5,511.3c-1.2-0.7-2.7-0.8-4.2-0.3c-1.5,0.5-2.8,1.6-3.4,2.9
	c-0.7,1.4-0.6,3.3,0.3,5c0.8,1.5,2,2.5,3.3,2.7c3.1,0.6,6.2-1.4,7-3.4h0c0.1-0.3,0.2-0.6,0.2-1C287.8,515.3,286.7,512.5,284.5,511.3
	z M285.5,517.4c-0.5,1.3-2.7,2.5-4.7,2.2c-0.7-0.1-1.4-0.7-1.8-1.6c-0.5-1.1-0.6-2.3-0.2-3.1c0.4-0.8,1.2-1.5,2.2-1.8
	c0.9-0.3,1.8-0.2,2.5,0.2C285.2,514,285.8,516.7,285.5,517.4z M259.1,516.6c1.6-0.8,2.7-2.4,3-4.3c0-0.2,0-0.4,0.1-0.5
	c0.1-1.6-0.5-3.1-1.6-4.1c-2.4-2.1-5.4-2.2-7.9-0.2c-1.2,1-2,2.4-2.1,4c-0.1,1.6,0.5,3.2,1.7,4.3
	C254.8,518.2,257.4,517.4,259.1,516.6z M252.6,511.6C252.6,511.6,252.6,511.6,252.6,511.6c0.1-1,0.5-1.9,1.3-2.5
	c1.8-1.4,3.6-1.3,5.3,0.1c0.7,0.6,1,1.7,0.8,2.8c-0.2,1.2-0.8,2.2-1.8,2.7c-2,0.9-3.2,0.8-4.5-0.4
	C253,513.6,252.6,512.6,252.6,511.6z M254.5,530.3c-0.9-1.1-2.1-1.6-3.4-1.7c-1.6,0-3.3,0.7-4.5,2.1c-2,2.1-2.2,5.6-0.4,7.8
	c0.9,1.1,2.3,1.9,3.8,2c1.5,0.1,2.9-0.3,3.9-1.2c1.3-1.2,2.1-2.8,2.2-4.4C256.2,533.3,255.7,531.6,254.5,530.3
	C254.5,530.3,254.5,530.3,254.5,530.3z M252.6,537.8c-0.6,0.5-1.5,0.8-2.3,0.7c-1-0.1-1.9-0.6-2.4-1.2c-0.5-0.7-0.8-1.6-0.7-2.5
	c0.1-0.9,0.4-1.9,1-2.6c0.8-0.9,2-1.4,2.9-1.4c0.7,0,1.3,0.3,1.8,0.9C254.5,533.5,254.3,536.3,252.6,537.8z M273.6,526.1
	c-3.3-2.8-7.6-1.7-10.2,0.9c0,0,0,0,0,0c-1.4,1.4-2.2,3.4-2.1,5.5c0,2.2,0.9,4.1,2.4,5.5c1.5,1.3,3.5,1.9,5.6,1.8
	c2.1-0.2,4.1-1.1,5.3-2.6c1-1.3,1.6-2.8,1.7-4.4C276.4,530.2,275.4,527.7,273.6,526.1z M272.9,535.7c-0.9,1.1-2.3,1.8-3.9,1.9
	c-1.5,0.1-3-0.3-4-1.3c-1-0.9-1.7-2.4-1.7-3.9c0-0.2,0-0.3,0-0.5c0.1-1.4,0.6-2.6,1.5-3.5c1.9-1.9,5.1-2.7,7.4-0.8
	C274.5,529.6,274.8,533.5,272.9,535.7z M435.1,127.4c-0.7,0.9-2,1.1-2.9,0.4c-33-25.3-72.4-38.6-114.1-38.6
	c-103.6,0-187.9,84.3-187.9,187.9c0,1.2-0.9,2.1-2.1,2.1c-1.2,0-2.1-0.9-2.1-2.1C125.9,171.1,212.1,85,318,85
	c42.6,0,82.9,13.6,116.7,39.5C435.6,125.1,435.8,126.5,435.1,127.4z M195.8,425.3c-0.9-0.7-1-2.1-0.3-3c0.7-0.9,2.1-1,3-0.3
	c33.5,27.7,76,42.9,119.5,42.9c103.6,0,187.9-84.3,187.9-187.9c0-1.2,0.9-2.1,2.1-2.1c1.2,0,2.1,0.9,2.1,2.1
	c0,105.9-86.2,192.1-192.1,192.1C273.5,469.1,230.1,453.6,195.8,425.3z"/>
<text transform="matrix(1 0 0 1 192.7283 263.5591)"><tspan x="0" y="0" class="st0 st1">Optional Hair</tspan><tspan x="0" y="50.4" class="st0 st1">     </tspan></text>
<text transform="matrix(1 0 0 1 252.6171 320.6752)" class="st0 st1">Uehala</text>
</svg>
